HIERARCHY
ROOT ui
{
	 OFFSET 0 0 0
	 CHANNELS 3 XPosition YPosition Z Position
	 EndSite
	 {
	 OFFSET 0 -1 0
	 }
}
ROOT li
{
	 OFFSET 0 0 0
	 CHANNELS 3 XPosition YPosition Z Position
	 EndSite
	 {
	 OFFSET 0 -1 0
	 }
}
ROOT ul
{
	 OFFSET 0 0 0
	 CHANNELS 3 XPosition YPosition Z Position
	 EndSite
	 {
	 OFFSET 0 -1 0
	 }
}
ROOT ll
{
	 OFFSET 0 0 0
	 CHANNELS 3 XPosition YPosition Z Position
	 EndSite
	 {
	 OFFSET 0 -1 0
	 }
}
ROOT tt
{
	 OFFSET 0 0 0
	 CHANNELS 3 XPosition YPosition Z Position
	 EndSite
	 {
	 OFFSET 0 -1 0
	 }
}
ROOT tb
{
	 OFFSET 0 0 0
	 CHANNELS 3 XPosition YPosition Z Position
	 EndSite
	 {
	 OFFSET 0 -1 0
	 }
}
ROOT td
{
	 OFFSET 0 0 0
	 CHANNELS 3 XPosition YPosition Z Position
	 EndSite
	 {
	 OFFSET 0 -1 0
	 }
}
ROOT v
{
	 OFFSET 0 0 0
	 CHANNELS 3 XPosition YPosition Z Position
	 EndSite
	 {
	 OFFSET 0 -1 0
	 }
}
ROOT bn
{
	 OFFSET 0 0 0
	 CHANNELS 3 XPosition YPosition Z Position
	 EndSite
	 {
	 OFFSET 0 -1 0
	 }
}
MOTION
Frames: 10
Frame Time: 0.002
0.009109808921813964	0.002379333972930908	0		0.4720513000488281	-2.460518310546875	0		-0.8955386962890625	0.13898130798339844	0		-0.6444454345703124	-2.641087158203125	0		1.8687059326171875	-0.52778955078125	0		3.496689208984375	-0.54362744140625	0		4.7857900390625	-0.3862257080078125	0		6.00700830078125	0.4875404052734375	0		-0.010715970039367676	5.9597431640625	0		
-0.01620034408569336	0.0018083750009536743	0		0.49885400390625	-2.4650048828125	0		-0.8952462768554688	0.11687445831298827	0		-0.610955322265625	-2.60876953125	0		1.8884080810546875	-0.5300487060546875	0		3.5208115234375	-0.522846923828125	0		4.7737978515625	-0.3706947021484375	0		6.0076591796875	0.4869241638183594	0		-0.010456899642944335	5.9586962890625	0		
0.007431374073028564	-0.002656601905822754	0		0.47378558349609373	-2.4625419921875	0		-0.9059265747070312	0.09596533966064454	0		-0.645320556640625	-2.568213134765625	0		1.887319580078125	-0.5209202880859375	0		3.500671142578125	-0.5162516479492187	0		4.77966015625	-0.3634795227050781	0		6.0114765625	0.4952669067382813	0		-0.010207982063293456	5.9576494140625	0		
-0.01481822681427002	-2.805019915103912E-4	0		0.4767017517089844	-2.46158251953125	0		-0.88851611328125	0.07955042266845704	0		-0.6426900634765625	-2.52832763671875	0		1.8739632568359375	-0.5265621337890625	0		3.495566650390625	-0.5079173583984375	0		4.7824521484375	-0.3601915283203125	0		6.00896826171875	0.48574169921875	0		-0.009971115112304687	5.95660791015625	0		
0.011869928359985352	-0.0017792359590530396	0		0.45577078247070313	-2.45217919921875	0		-0.8800836791992187	0.06430998992919922	0		-0.6600755004882812	-2.48907080078125	0		1.88696533203125	-0.5126629638671875	0		3.51033251953125	-0.5069251098632812	0		4.78455078125	-0.33986721801757813	0		6.01790966796875	0.5010367126464844	0		-0.12597891235351563	5.943671875	0		
0.01968562126159668	0.004083512783050537	0		0.5125945434570313	-2.457158935546875	0		-0.8675791625976562	0.053014617919921875	0		-0.6683408813476562	-2.442962890625	0		1.8828057861328125	-0.5074352111816406	0		3.50169384765625	-0.4724828186035156	0		4.7986259765625	-0.3207336730957031	0		6.01472265625	0.5095754699707031	0		-0.009529236793518067	5.95456591796875	0		
0.013247801780700683	-0.0037767260074615477	0		0.48448379516601564	-2.45758740234375	0		-0.878234619140625	0.033156192779541016	0		-0.6708314819335938	-2.40893896484375	0		1.9215091552734376	-0.5099500732421876	0		3.4911162109375	-0.4899891357421875	0		4.79523193359375	-0.32726220703125	0		6.01092236328125	0.4841480712890625	0		-0.009323064804077148	5.9535771484375	0		
-0.021892642974853514	0.0059043197631835935	0		0.5123008422851563	-2.461986572265625	0		-0.88384521484375	0.016235630035400392	0		-0.6953875122070312	-2.37749462890625	0		1.9032469482421874	-0.5094154663085938	0		3.50507861328125	-0.4768986206054687	0		4.794201171875	-0.31279946899414063	0		6.01155859375	0.48367599487304686	0		-0.009129364013671875	5.95261767578125	0		
-0.011414030075073241	-0.005196607112884522	0		0.4592710266113281	-2.4559140625	0		-0.8713677368164062	0.005030041217803955	0		-0.6880971069335937	-2.35358447265625	0		1.9229249267578126	-0.5115224609375	0		3.51180908203125	-0.475647216796875	0		4.79725537109375	-0.2923766784667969	0		6.00347998046875	0.5003919982910157	0		-0.14231857299804687	5.9320517578125	0		
0.006376329898834228	0.002618377923965454	0		0.49111102294921877	-2.456307373046875	0		-0.8589122924804687	-0.006131552219390869	0		-0.7106749877929688	-2.320103759765625	0		1.917882080078125	-0.4961509704589844	0		3.51127392578125	-0.43122573852539064	0		4.8140859375	-0.2831658935546875	0		6.02105419921875	0.4986817626953125	0		-0.00878422737121582	5.9508095703125	0		
